<?xml version="1.0" encoding="UTF-8"?>
<svg width="543px" height="30px" viewBox="0 0 543 30" version="1.1" xmlns="http://www.w3.org/2000/svg" xmlns:xlink="http://www.w3.org/1999/xlink">
    <!-- Generator: Sketch 52.2 (67145) - http://www.bohemiancoding.com/sketch -->
    <title>Logos</title>
    <desc>Created with Sketch.</desc>
    <g id="Symbols" stroke="none" stroke-width="1" fill="none" fill-rule="evenodd">
        <g id="Landingpage--/-Bookkeeping" transform="translate(-240.000000, -530.000000)" fill="#999999">
            <g id="Logos" transform="translate(240.000000, 530.000000)">
                <path d="M368.111384,15.8989076 C368.055941,16.3293834 367.986637,16.7598593 367.861891,17.2042214 L367.529234,18.7733753 L367.44607,19.1899648 C367.210438,19.8287354 366.558985,20.3147565 365.893672,20.3147565 C365.172915,20.3147565 364.715512,19.7454175 364.826398,19.0372153 L364.812537,19.0788743 L365.214497,17.2042214 C366.586707,10.7054249 362.428497,5.41473801 355.941689,5.41473801 L350.341966,5.41473801 C349.62121,5.41473801 349.149946,4.81762637 349.302413,4.08165155 C349.385578,3.70672098 349.607349,3.37344936 349.898424,3.13738197 C350.189498,2.90131457 350.563737,2.74856508 350.924115,2.74856508 L356.523838,2.74856508 C364.050199,2.74856508 369.012329,8.53915941 368.111384,15.8989076 Z M355.401122,8.06702463 C360.418695,8.06702463 363.648238,12.1634882 362.594825,17.2042214 L362.054258,19.7731901 L361.375083,22.9531568 C361.222616,23.6891316 360.501859,24.2862433 359.767242,24.2862433 C359.032625,24.2862433 358.561361,23.6891316 358.713829,22.9531568 L359.933571,17.2042214 C360.682048,13.6354379 358.408894,10.7331976 354.846694,10.7331976 L344.076929,10.7331976 L344.049208,10.7331976 C343.328452,10.7193112 342.871049,10.1221996 343.023516,9.40011109 C343.175984,8.66413627 343.89674,8.06702463 344.631357,8.06702463 L355.401122,8.06702463 Z M354.264544,13.3993705 C356.35751,13.3993705 357.701998,15.1073875 357.244595,17.2042214 L355.636753,24.8139233 C355.414982,25.8692835 354.77739,26.813553 353.945748,27.5078689 C353.100245,28.2021848 352.060693,28.6326606 351.02114,28.6326606 L335.96842,28.6326606 C333.875454,28.6326606 332.530966,26.9246436 332.974509,24.8278097 L334.596211,17.2181078 C334.817982,16.1627476 335.455574,15.2184781 336.287216,14.5241622 C337.132719,13.8298463 338.172271,13.3993705 339.211824,13.3993705 L354.264544,13.3993705 Z M352.421071,24.536197 L353.918027,17.4680615 C354.042773,16.8987225 353.654673,16.4127014 353.086385,16.4127014 L339.114799,16.4127014 C338.532649,16.4127014 337.9505,16.8987225 337.825754,17.4680615 L336.328798,24.536197 C336.204052,25.105536 336.592151,25.5915571 337.16044,25.5915571 L351.132026,25.5915571 C351.714175,25.5915571 352.296325,25.105536 352.421071,24.536197 Z M223.003713,27.5773005 C222.865106,28.25773 222.393842,28.6465469 221.825553,28.6465469 L218.79006,28.6465469 C218.318796,28.6465469 218,28.5354564 218,28.035549 C218,27.7161637 218.069304,27.424551 218.110886,27.2162562 L222.975991,4.47046843 C223.114598,3.79003888 223.474977,3.31790409 224.195733,3.31790409 L236.905995,3.31790409 C237.446562,3.31790409 237.806941,3.5678578 237.806941,3.99833364 C237.806941,4.38715053 237.668334,5.17867062 237.266373,6.83114238 C237.127766,7.40048139 236.767388,7.6504351 236.088214,7.6504351 L227.258948,7.6504351 L225.789714,14.2464358 L233.302213,14.2464358 C233.84278,14.2464358 234.23088,14.3575264 234.23088,14.8852064 C234.23088,15.2045917 234.022969,16.3849287 233.690313,17.7457878 C233.551706,18.3567858 233.191327,18.5650805 232.512153,18.5650805 L224.93035,18.5650805 L223.003713,27.5773005 Z M249.2836,28.6604333 L246.857978,28.6604333 C246.067918,28.6604333 245.887729,28.3688206 245.887729,27.9383448 C245.887729,27.7994816 245.929311,27.46621 245.957032,27.3273468 C244.598684,28.6187743 242.852236,29.0492501 240.592941,29.0492501 C237.224791,29.0492501 235.22885,27.2579152 235.22885,23.4252916 C235.22885,19.9120533 236.40701,14.8296612 239.3732,12.3856693 C241.119648,10.9553786 243.087867,10.5249028 245.735261,10.5249028 C247.232217,10.5249028 248.770755,10.9137197 249.380625,11.5247176 C249.560814,11.0248102 249.768725,10.622107 250.558785,10.622107 L252.887383,10.622107 C253.497253,10.622107 253.816049,10.9831513 253.816049,11.4413997 C253.816049,11.6913535 253.746746,12.1634882 253.63586,12.6633957 L250.489481,27.46621 C250.323153,28.3688206 250.101382,28.6604333 249.2836,28.6604333 Z M248.382655,14.9685243 C247.842088,14.6769117 246.733232,14.4963896 245.846147,14.4963896 C244.196723,14.4963896 243.198753,14.9268654 242.380972,15.7183855 C241.022623,17.0792446 240.232563,20.0231439 240.232563,22.2032957 C240.232563,24.2445843 241.050345,24.9944455 242.838375,24.9944455 C243.877927,24.9944455 244.875898,24.8555823 245.804565,24.272357 C246.012475,24.1334938 246.234246,23.9807443 246.345132,23.8002222 C246.456018,23.5919274 246.594625,23.3280874 246.636207,23.0781337 L248.382655,14.9685243 Z M268.522252,22.4532494 C268.522252,24.5639696 267.912382,26.244214 266.69264,27.3967784 C265.375873,28.5771153 263.366072,29.0770228 260.607793,29.0770228 C258.57027,29.0770228 255.742687,28.7854101 254.384338,28.1049806 C254.065542,27.9661174 253.843771,27.7161637 253.843771,27.3828921 C253.843771,26.8413257 254.204149,25.7026477 254.564527,24.841696 C254.744716,24.4112201 255.035791,24.2029254 255.562498,24.2029254 C255.770408,24.2029254 256.310975,24.3140159 256.532747,24.3834475 C257.932677,24.8555823 259.498937,25.0638771 261.079056,25.0638771 C262.368102,25.0638771 263.047276,24.8833549 263.366072,24.5223107 C263.72645,24.1612664 263.754172,23.8418811 263.754172,23.4530642 C263.754172,22.8142936 263.463097,22.4532494 261.966141,21.9811146 L259.887036,21.3006851 C257.558439,20.5785966 256.061483,19.3704869 256.061483,16.9959267 C256.061483,14.996297 256.671354,13.1216441 258.390081,11.8302166 C259.706847,10.8304018 261.605763,10.3304944 264.32246,10.3304944 C265.750112,10.3304944 267.579725,10.4415849 268.938073,10.8304018 C269.409337,10.969265 269.617248,11.2608776 269.617248,11.6219219 C269.617248,11.9135345 269.367755,13.4132568 269.07668,14.2742085 C268.938073,14.6352527 268.536113,14.8852064 268.148014,14.8852064 C267.898521,14.8852064 267.427257,14.8157749 267.219347,14.7741159 C265.722391,14.4547306 264.571953,14.3436401 263.573982,14.3436401 C262.506709,14.3436401 261.827534,14.4825032 261.397852,14.732457 C261.009753,14.9824107 260.829564,15.4545455 260.829564,16.0238845 C260.829564,16.6348824 261.217663,16.9959267 262.686898,17.4958341 L264.793724,18.2179226 C267.274789,19.0511016 268.522252,20.3841881 268.522252,22.4532494 Z M277.240633,22.0227736 C277.032722,23.0642474 276.949558,23.6752453 276.949558,24.1057212 C276.949558,24.7444918 277.490125,25.0777634 278.197021,25.0777634 C278.806892,25.0777634 279.236574,25.0083318 279.513788,25.0083318 C279.943469,25.0083318 280.192962,25.2582855 280.234544,25.7581929 C280.276126,26.3969635 280.276126,27.0773931 280.276126,27.6189595 C280.276126,28.25773 279.777141,28.6604333 279.125688,28.7992964 C278.307907,28.9798186 277.129747,29.0909091 276.090195,29.0909091 C273.983368,29.0909091 271.876542,28.4104795 271.876542,25.7998519 C271.876542,25.0083318 271.987427,24.1890391 272.195338,23.2586558 L274.02495,14.8018885 L272.486413,14.8018885 C271.945845,14.8018885 271.696353,14.5519348 271.696353,14.1631179 C271.696353,13.8437326 271.765656,13.3438252 272.126034,11.802444 C272.264641,11.233105 272.62502,10.8304018 273.276473,10.8304018 L274.953617,10.8304018 C274.953617,10.7887428 275.272413,9.3306795 275.882284,6.95611924 C276.062473,6.31734864 276.381269,5.8868728 276.99114,5.8868728 L279.777141,5.8868728 C280.206823,5.8868728 280.456315,6.06739493 280.456315,6.56730235 C280.456315,6.77559711 280.387012,7.20607295 280.34543,7.42825403 L279.596952,10.8304018 L282.064157,10.8304018 C282.701749,10.8304018 282.881938,11.0803555 282.881938,11.4691724 C282.881938,11.6774671 282.812634,12.2884651 282.452256,14.0103685 C282.313649,14.6213664 281.911689,14.8018885 281.301818,14.8018885 L278.793031,14.8018885 L277.240633,22.0227736 Z M283.616555,28.6187743 C282.978963,28.6187743 282.757192,28.299389 282.757192,27.8689132 C282.757192,27.688391 282.826495,27.3967784 282.868077,27.2579152 L287.691601,4.47046843 C287.830208,3.83169783 288.162865,3.31790409 288.939064,3.31790409 L294.691254,3.31790409 C295.800111,3.31790409 297.657444,3.38733568 298.55839,3.49842622 C301.92654,3.92890206 303.423496,5.76189595 303.423496,8.48361415 C303.423496,11.9274208 301.995844,14.3991853 298.599972,15.3573412 C300.859266,15.829476 302.037426,17.5097204 302.037426,20.1897797 C302.037426,23.5224958 300.54047,26.4941677 297.033713,27.7855953 C295.536757,28.3271616 292.847781,28.604888 289.45191,28.604888 L283.616555,28.604888 L283.616555,28.6187743 Z M290.657791,24.3973338 C292.307214,24.3973338 293.873473,24.2862433 294.621951,24.0362896 C296.202071,23.4669506 296.908967,21.953342 296.908967,20.3147565 C296.908967,19.1344196 296.437703,18.3428995 295.5922,17.9818552 C294.843722,17.6624699 293.845752,17.5930383 292.445821,17.5930383 L289.840009,17.5930383 L288.370775,24.3973338 L290.657791,24.3973338 Z M293.01411,13.5382337 C294.41404,13.5382337 295.522896,13.4271431 296.160489,13.2188484 C297.740609,12.7189409 298.336619,11.3164229 298.336619,9.92779115 C298.336619,8.45584151 297.615862,7.8865025 296.756499,7.63654879 C296.118907,7.45602666 294.926886,7.42825403 293.790309,7.42825403 L292.002279,7.42825403 L290.685512,13.55212 L293.01411,13.55212 L293.01411,13.5382337 Z M304.740262,28.6604333 C304.241277,28.6604333 304.019506,28.4521385 304.019506,27.9800037 C304.019506,27.7717089 304.088809,27.4384373 304.130391,27.1884836 L307.415377,11.7885577 C307.553984,11.1775597 307.845059,10.7887428 308.482651,10.7887428 L311.490423,10.7887428 C312.03099,10.7887428 312.21118,11.0803555 312.21118,11.4691724 C312.21118,11.6774671 312.141876,12.1496019 312.072573,12.3995556 L308.829169,27.6467321 C308.690562,28.3688206 308.357905,28.6465469 307.761895,28.6465469 L304.740262,28.6465469 L304.740262,28.6604333 Z M312.654722,6.98389187 C312.155737,7.45602666 311.476562,7.70598037 310.617199,7.70598037 C309.300433,7.70598037 308.357905,7.20607295 308.357905,5.77578226 C308.357905,4.95648954 308.565815,3.91501574 309.147965,3.30401777 C309.716254,2.73467876 310.395428,2.4430661 311.324095,2.4430661 C312.640861,2.4430661 313.61111,2.91520089 313.61111,4.4426958 C313.61111,5.03980744 313.333896,6.30346232 312.654722,6.98389187 Z M316.909957,28.6604333 L313.943767,28.6604333 C313.444782,28.6604333 313.153707,28.4104795 313.153707,27.9383448 C313.153707,27.688391 313.223011,27.2995742 313.264593,27.1468247 L318.448495,2.81799667 C318.587102,2.17922607 318.878176,1.81818182 319.515769,1.81818182 L322.481958,1.81818182 C323.022526,1.81818182 323.272018,1.99870394 323.272018,2.42917978 C323.272018,2.60970191 323.202715,2.97074616 323.161133,3.15126828 L317.935649,27.6467321 C317.797042,28.3271616 317.505967,28.6604333 316.909957,28.6604333 Z M326.058019,28.6604333 L323.091829,28.6604333 C322.592844,28.6604333 322.301769,28.4104795 322.301769,27.9383448 C322.301769,27.688391 322.371073,27.2995742 322.412655,27.1468247 L327.596557,2.81799667 C327.735164,2.17922607 328.026239,1.81818182 328.663831,1.81818182 L331.630021,1.81818182 C332.170588,1.81818182 332.420081,1.99870394 332.420081,2.42917978 C332.420081,2.60970191 332.350777,2.97074616 332.309195,3.15126828 L327.097572,27.6467321 C326.958965,28.3271616 326.66789,28.6604333 326.058019,28.6604333 Z" id="Fastbill-Logo" fill-rule="nonzero"></path>
                <path d="M415.26604,25.1351351 L415.26604,13.7837838 L403.879812,13.7837838 C401.184766,13.7837838 399,11.6057096 399,8.91891892 L399,4.61852778e-14 L419.739201,4.61852778e-14 C428.048926,4.61852778e-14 434.785288,6.71572875 434.785288,15 C434.785288,23.1979814 428.188528,29.8599264 419.998348,29.99782 C417.371539,29.9200745 415.26604,27.7727345 415.26604,25.1351351 Z M399,13.7837838 L415.26604,30 L399,30 L399,13.7837838 Z M454.29803,4.11891892 L456.054762,4.11891892 L456.054762,25.1351351 L454.29803,25.1351351 L454.29803,22.4789189 L454.239472,22.4789189 C453.985721,22.9848674 453.658777,23.4275657 453.25863,23.807027 C452.858483,24.1864884 452.419305,24.5027014 451.941081,24.7556757 C451.462857,25.0086499 450.970001,25.2032426 450.462498,25.3394595 C449.954995,25.4756763 449.457259,25.5437838 448.969275,25.5437838 C447.739556,25.5437838 446.695287,25.3394615 445.836436,24.9308108 C444.977585,24.5221601 444.270019,23.9627063 443.713718,23.2524324 C443.157416,22.5421586 442.752396,21.7005454 442.498644,20.7275676 C442.244893,19.7545897 442.118019,18.713519 442.118019,17.6043243 C442.118019,16.5535082 442.254653,15.5416265 442.527923,14.5686486 C442.801194,13.5956708 443.215974,12.744328 443.772275,12.0145946 C444.328577,11.2848612 445.031263,10.7010833 445.880354,10.2632432 C446.729446,9.82540322 447.729797,9.60648649 448.881439,9.60648649 C449.955003,9.60648649 450.984633,9.84486251 451.97036,10.3216216 C452.956087,10.7983807 453.731969,11.5037791 454.29803,12.4378378 L454.29803,4.11891892 Z M454.29803,17.5167568 C454.29803,16.6605362 454.180916,15.8481119 453.946684,15.0794595 C453.712451,14.310807 453.375748,13.6394623 452.936562,13.0654054 C452.497377,12.4913485 451.960603,12.0340558 451.326224,11.6935135 C450.691846,11.3529713 449.974521,11.1827027 449.174227,11.1827027 C448.256818,11.1827027 447.466296,11.3627009 446.802639,11.7227027 C446.138981,12.0827045 445.592447,12.574051 445.163022,13.1967568 C444.733596,13.8194625 444.421291,14.5443202 444.226098,15.3713514 C444.030905,16.1983825 443.952828,17.0886439 443.991867,18.0421622 C443.991867,18.9956805 444.123621,19.8372936 444.387132,20.567027 C444.650643,21.2967604 445.016625,21.9145921 445.485089,22.4205405 C445.953554,22.926489 446.500087,23.3108095 447.124706,23.5735135 C447.749325,23.8362175 448.432492,23.9675676 449.174227,23.9675676 C449.99404,23.9675676 450.726004,23.8021638 451.370143,23.4713514 C452.014281,23.1405389 452.551055,22.6881109 452.980481,22.1140541 C453.409906,21.5399972 453.73685,20.8589229 453.961323,20.0708108 C454.185795,19.2826987 454.29803,18.4313559 454.29803,17.5167568 Z M460.745888,17.9837838 C460.745888,18.8010851 460.853243,19.5745909 461.067956,20.3043243 C461.282669,21.0340577 461.599853,21.6664838 462.019519,22.2016216 C462.439185,22.7367594 462.971079,23.1648632 463.615218,23.4859459 C464.259356,23.8070286 465.00108,23.9675676 465.840412,23.9675676 C466.992053,23.9675676 467.977766,23.6659489 468.797578,23.0627027 C469.617391,22.4594565 470.163924,21.6032488 470.437195,20.4940541 L472.398879,20.4940541 C472.184167,21.2140576 471.90114,21.8805375 471.549792,22.4935135 C471.198444,23.1064896 470.759265,23.6416194 470.232243,24.0989189 C469.705221,24.5562185 469.080611,24.9113501 468.358395,25.1643243 C467.636179,25.4172986 466.79686,25.5437838 465.840412,25.5437838 C464.630213,25.5437838 463.585943,25.3394615 462.707573,24.9308108 C461.829202,24.5221601 461.106997,23.9627063 460.540936,23.2524324 C459.974875,22.5421586 459.555216,21.7054102 459.281945,20.7421622 C459.008674,19.7789141 458.87204,18.7427082 458.87204,17.6335135 C458.87204,16.5243188 459.033073,15.4832481 459.355142,14.5102703 C459.677211,13.5372924 460.135909,12.6859496 460.731249,11.9562162 C461.326589,11.2264828 462.053674,10.6524345 462.912525,10.2340541 C463.771376,9.81567357 464.747329,9.60648649 465.840412,9.60648649 C467.928982,9.60648649 469.568583,10.3216145 470.759263,11.7518919 C471.949943,13.1821693 472.535514,15.2594458 472.515995,17.9837838 L460.745888,17.9837838 Z M470.642147,16.5243243 C470.642147,15.7848611 470.539672,15.0891924 470.334719,14.4372973 C470.129766,13.7854022 469.827221,13.2210834 469.427074,12.7443243 C469.026927,12.2675652 468.524312,11.8881095 467.919212,11.6059459 C467.314112,11.3237824 466.621186,11.1827027 465.840412,11.1827027 C465.059638,11.1827027 464.371592,11.3286472 463.776252,11.6205405 C463.180912,11.9124339 462.673416,12.3016192 462.25375,12.7881081 C461.834084,13.274597 461.497381,13.8389157 461.243629,14.4810811 C460.989878,15.1232465 460.823966,15.8043208 460.745888,16.5243243 L470.642147,16.5243243 Z M477.090005,25.1351351 L475.333273,25.1351351 L475.333273,4.11891892 L477.090005,4.11891892 L477.090005,12.4378378 C477.656066,11.5037791 478.431949,10.7983807 479.417676,10.3216216 C480.403403,9.84486251 481.433032,9.60648649 482.506597,9.60648649 C483.658238,9.60648649 484.65859,9.82540322 485.507681,10.2632432 C486.356773,10.7010833 487.059459,11.2848612 487.61576,12.0145946 C488.172061,12.744328 488.586841,13.5956708 488.860112,14.5686486 C489.133383,15.5416265 489.270016,16.5535082 489.270016,17.6043243 C489.270016,18.713519 489.143143,19.7545897 488.889391,20.7275676 C488.635639,21.7005454 488.230619,22.5421586 487.674318,23.2524324 C487.118017,23.9627063 486.41045,24.5221601 485.551599,24.9308108 C484.692749,25.3394615 483.648479,25.5437838 482.41876,25.5437838 C481.930777,25.5437838 481.433041,25.4756763 480.925538,25.3394595 C480.418035,25.2032426 479.925179,25.0086499 479.446955,24.7556757 C478.968731,24.5027014 478.529552,24.1864884 478.129405,23.807027 C477.729259,23.4275657 477.402315,22.9848674 477.148563,22.4789189 L477.090005,22.4789189 L477.090005,25.1351351 Z M477.090005,17.5167568 C477.090005,18.4313559 477.20224,19.2826987 477.426712,20.0708108 C477.651185,20.8589229 477.978129,21.5399972 478.407555,22.1140541 C478.83698,22.6881109 479.373754,23.1405389 480.017893,23.4713514 C480.662031,23.8021638 481.393996,23.9675676 482.213808,23.9675676 C482.955544,23.9675676 483.63871,23.8362175 484.263329,23.5735135 C484.887948,23.3108095 485.434482,22.926489 485.902946,22.4205405 C486.37141,21.9145921 486.737392,21.2967604 487.000904,20.567027 C487.264415,19.8372936 487.396168,18.9956805 487.396168,18.0421622 C487.435207,17.0886439 487.357131,16.1983825 487.161937,15.3713514 C486.966744,14.5443202 486.654439,13.8194625 486.225014,13.1967568 C485.795588,12.574051 485.244175,12.0827045 484.570757,11.7227027 C483.89734,11.3627009 483.111698,11.1827027 482.213808,11.1827027 C481.413515,11.1827027 480.69619,11.3529713 480.061811,11.6935135 C479.427432,12.0340558 478.890658,12.4913485 478.451473,13.0654054 C478.012288,13.6394623 477.675584,14.310807 477.441352,15.0794595 C477.20712,15.8481119 477.090005,16.6605362 477.090005,17.5167568 Z M492.46792,25.1351351 L492.46792,10.0151351 L494.224652,10.0151351 L494.224652,25.1351351 L492.46792,25.1351351 Z M492.380083,6.71675676 L492.380083,4.11891892 L494.312489,4.11891892 L494.312489,6.71675676 L492.380083,6.71675676 Z M503.219772,25.1935135 C503.00506,25.2324326 502.722033,25.3005401 502.370685,25.3978378 C502.019337,25.4951356 501.628956,25.5437838 501.19953,25.5437838 C500.32116,25.5437838 499.652632,25.3248671 499.193927,24.887027 C498.735223,24.449187 498.505874,23.6659516 498.505874,22.5372973 L498.505874,11.4745946 L496.368516,11.4745946 L496.368516,10.0151351 L498.505874,10.0151351 L498.505874,5.81189189 L500.262606,5.81189189 L500.262606,10.0151351 L503.102657,10.0151351 L503.102657,11.4745946 L500.262606,11.4745946 L500.262606,21.8367568 C500.262606,22.2064884 500.272366,22.5275662 500.291885,22.8 C500.311404,23.0724338 500.369961,23.2962153 500.467558,23.4713514 C500.565155,23.6464874 500.716428,23.7729726 500.921381,23.8508108 C501.126334,23.9286491 501.41424,23.9675676 501.785108,23.9675676 C502.019339,23.9675676 502.258448,23.9481083 502.50244,23.9091892 C502.746432,23.8702701 502.98554,23.8216219 503.219772,23.7632432 L503.219772,25.1935135 Z M526.714441,25.5437838 C525.738473,25.5243242 524.825957,25.3491908 523.976866,25.0183784 C523.127775,24.6875659 522.386051,24.1913547 521.751672,23.5297297 C521.117293,22.8681048 520.614677,22.041086 520.24381,21.0486486 C519.872943,20.0562113 519.687511,18.898385 519.687511,17.5751351 C519.687511,16.4659404 519.833904,15.4297345 520.126694,14.4664865 C520.419485,13.5032385 520.858663,12.6616252 521.444244,11.9416216 C522.029824,11.2216181 522.761789,10.6524345 523.640159,10.2340541 C524.518529,9.81567357 525.54328,9.60648649 526.714441,9.60648649 C527.90512,9.60648649 528.939631,9.81567357 529.818001,10.2340541 C530.696371,10.6524345 531.428336,11.2167532 532.013917,11.927027 C532.599497,12.6373009 533.033796,13.4789141 533.316826,14.4518919 C533.599857,15.4248697 533.74137,16.4659404 533.74137,17.5751351 C533.74137,18.7816276 533.575458,19.8713465 533.243629,20.8443243 C532.9118,21.8173022 532.438463,22.6540506 531.823604,23.3545946 C531.208744,24.0551386 530.46702,24.5951333 529.59841,24.9745946 C528.729799,25.3540559 527.768485,25.5437838 526.714441,25.5437838 Z M511.24869,25.5437838 C510.272722,25.5243242 509.360206,25.3491908 508.511115,25.0183784 C507.662024,24.6875659 506.9203,24.1913547 506.285921,23.5297297 C505.651542,22.8681048 505.148926,22.041086 504.778059,21.0486486 C504.407192,20.0562113 504.22176,18.898385 504.22176,17.5751351 C504.22176,16.4659404 504.368153,15.4297345 504.660943,14.4664865 C504.953734,13.5032385 505.392912,12.6616252 505.978493,11.9416216 C506.564073,11.2216181 507.296038,10.6524345 508.174408,10.2340541 C509.052778,9.81567357 510.077529,9.60648649 511.24869,9.60648649 C512.43937,9.60648649 513.47388,9.81567357 514.35225,10.2340541 C515.23062,10.6524345 515.962585,11.2167532 516.548166,11.927027 C517.133746,12.6373009 517.568045,13.4789141 517.851075,14.4518919 C518.134106,15.4248697 518.275619,16.4659404 518.275619,17.5751351 C518.275619,18.7816276 518.109707,19.8713465 517.777878,20.8443243 C517.446049,21.8173022 516.972712,22.6540506 516.357853,23.3545946 C515.742993,24.0551386 515.001269,24.5951333 514.132659,24.9745946 C513.264048,25.3540559 512.302734,25.5437838 511.24869,25.5437838 Z M516.401771,17.5751351 C516.401771,16.6799955 516.304176,15.8432471 516.108982,15.0648649 C515.913789,14.2864826 515.611244,13.6102731 515.201337,13.0362162 C514.791431,12.4621593 514.264417,12.0097314 513.620278,11.6789189 C512.97614,11.3481065 512.185618,11.1827027 511.24869,11.1827027 C510.33128,11.1827027 509.545639,11.3627009 508.89174,11.7227027 C508.237842,12.0827045 507.705949,12.5594565 507.296042,13.152973 C506.886135,13.7464895 506.58359,14.4275638 506.388397,15.1962162 C506.193204,15.9648687 506.095608,16.7578338 506.095608,17.5751351 C506.095608,18.5091939 506.207843,19.3702663 506.432315,20.1583784 C506.656787,20.9464905 506.983732,21.6226999 507.413157,22.187027 C507.842583,22.7513542 508.379357,23.1891876 509.023495,23.5005405 C509.667634,23.8118934 510.409358,23.9675676 511.24869,23.9675676 C512.166099,23.9675676 512.951741,23.7875694 513.605639,23.4275676 C514.259537,23.0675658 514.791431,22.5859489 515.201337,21.9827027 C515.611244,21.3794565 515.913789,20.6983822 516.108982,19.9394595 C516.304176,19.1805367 516.401771,18.3924365 516.401771,17.5751351 Z M531.867522,17.5751351 C531.867522,16.6799955 531.769927,15.8432471 531.574733,15.0648649 C531.37954,14.2864826 531.076995,13.6102731 530.667088,13.0362162 C530.257182,12.4621593 529.730168,12.0097314 529.086029,11.6789189 C528.441891,11.3481065 527.651369,11.1827027 526.714441,11.1827027 C525.797031,11.1827027 525.011389,11.3627009 524.357491,11.7227027 C523.703593,12.0827045 523.1717,12.5594565 522.761793,13.152973 C522.351886,13.7464895 522.049341,14.4275638 521.854148,15.1962162 C521.658955,15.9648687 521.561359,16.7578338 521.561359,17.5751351 C521.561359,18.5091939 521.673594,19.3702663 521.898066,20.1583784 C522.122538,20.9464905 522.449482,21.6226999 522.878908,22.187027 C523.308334,22.7513542 523.845108,23.1891876 524.489246,23.5005405 C525.133385,23.8118934 525.875109,23.9675676 526.714441,23.9675676 C527.63185,23.9675676 528.417492,23.7875694 529.07139,23.4275676 C529.725288,23.0675658 530.257182,22.5859489 530.667088,21.9827027 C531.076995,21.3794565 531.37954,20.6983822 531.574733,19.9394595 C531.769927,19.1805367 531.867522,18.3924365 531.867522,17.5751351 Z M537.993313,25.1351351 L536.236581,25.1351351 L536.236581,10.0151351 L537.993313,10.0151351 L537.993313,12.8464865 L538.051871,12.8464865 C538.539854,11.639994 539.169343,10.7983807 539.940358,10.3216216 C540.711372,9.84486251 541.731242,9.60648649 543,9.60648649 L543,11.5037838 C542.004513,11.4843242 541.184713,11.6399984 540.540575,11.9708108 C539.896436,12.3016232 539.384061,12.7491864 539.003434,13.3135135 C538.622807,13.8778407 538.3593,14.5443205 538.212904,15.312973 C538.066509,16.0816254 537.993313,16.8843201 537.993313,17.7210811 L537.993313,25.1351351 Z" id="Debitoor"></path>
                <g id="lexoffice" transform="translate(0.000000, 2.000000)">
                    <path d="M29.1518987,15.2510638 L29.1518987,15.1914894 C29.1518987,14.1191489 27.7835443,10.7829787 23.0240506,10.7829787 C17.9075949,10.7829787 16.8367089,14.7148936 16.8367089,15.1914894 L16.8367089,15.2510638 L29.1518987,15.2510638 Z M35.5177215,21.3276596 C33.6139241,26.0340426 29.1518987,28 23.2025316,28 C15.3493671,28 10.1139241,24.8425532 10.1139241,17.3361702 C10.1139241,9.82978723 15.3493671,6.67234043 23.2025316,6.67234043 C31.7696203,6.67234043 35.9341772,11.0212766 35.9341772,18.4680851 L35.9341772,19.0638298 L16.8367089,19.0638298 L16.8367089,19.1234043 C16.8367089,21.0297872 18.7405063,23.8893617 23.2025316,23.8893617 C25.8202532,23.8893617 27.664557,22.9957447 28.6164557,21.2680851 L35.5177215,21.2680851 L35.5177215,21.3276596 Z M0.0594936709,0.357446809 L6.5443038,0.357446809 L6.5443038,27.2255319 L0.0594936709,27.2255319 L0.0594936709,0.357446809 Z M35.6962025,7.38723404 L45.6911392,7.38723404 L55.6265823,17.3361702 L50.6886076,22.3404255 L45.6911392,27.2851064 L35.6962025,27.2851064 L45.6911392,17.3361702 L35.6962025,7.38723404 Z" id="Combined-Shape" fill-rule="nonzero" opacity="0.699999988"></path>
                    <path d="M102.567089,11.7957447 L102.567089,27.2851064 L96.0822785,27.2851064 L96.0822785,11.7957447 L91.9772152,11.7957447 L91.9772152,7.44680851 L96.0822785,7.44680851 L96.0822785,6.67234043 C96.0822785,1.3106383 97.6886076,0.357446809 103.756962,0.357446809 C104.649367,0.357446809 106.255696,0.417021277 107.862025,0.417021277 L107.862025,4.46808511 C106.731646,4.40851064 105.660759,4.40851064 104.589873,4.40851064 C103.459494,4.40851064 102.567089,4.58723404 102.567089,6.43404255 L102.567089,7.38723404 L110.836709,7.38723404 L110.836709,6.61276596 C110.836709,1.25106383 112.443038,0.29787234 118.511392,0.29787234 C119.403797,0.29787234 121.010127,0.357446809 122.616456,0.357446809 L122.616456,4.40851064 C121.486076,4.34893617 120.41519,4.34893617 119.344304,4.34893617 C118.213924,4.34893617 117.321519,4.52765957 117.321519,6.37446809 L117.321519,7.32765957 L122.556962,7.32765957 L122.556962,11.6765957 L117.321519,11.6765957 L117.321519,27.1659574 L110.836709,27.1659574 L110.836709,11.6765957 L102.567089,11.6765957 L102.567089,11.7957447 Z M125.472152,0.357446809 L131.956962,0.357446809 L131.956962,4.94468085 L125.472152,4.94468085 L125.472152,0.357446809 Z M125.472152,7.38723404 L131.956962,7.38723404 L131.956962,27.2255319 L125.472152,27.2255319 L125.472152,7.38723404 Z M153.255696,14.7148936 C152.482278,12.093617 150.459494,11.2595745 147.841772,11.2595745 C143.796203,11.2595745 141.475949,13.4638298 141.475949,17.3361702 C141.475949,21.2085106 143.796203,23.412766 147.841772,23.412766 C150.697468,23.412766 152.898734,21.8638298 153.255696,19.3617021 L159.978481,19.3617021 C158.788608,26.3914894 153.791139,28 147.306329,28 C139.810127,28 134.753165,24.8425532 134.753165,17.3361702 C134.753165,9.82978723 139.988608,6.67234043 147.841772,6.67234043 C152.898734,6.67234043 158.729114,8.16170213 159.978481,14.7744681 L153.255696,14.7744681 L153.255696,14.7148936 Z M181.039241,15.2510638 L181.039241,15.1914894 C181.039241,14.1191489 179.670886,10.7829787 174.911392,10.7829787 C169.794937,10.7829787 168.724051,14.7148936 168.724051,15.1914894 L168.724051,15.2510638 L181.039241,15.2510638 Z M187.405063,21.3276596 C185.501266,26.0340426 180.979747,28 175.03038,28 C167.177215,28 161.941772,24.8425532 161.941772,17.3361702 C161.941772,9.82978723 167.177215,6.67234043 175.03038,6.67234043 C183.597468,6.67234043 187.762025,11.0212766 187.762025,18.4680851 L187.762025,19.0638298 L168.664557,19.0638298 L168.664557,19.1234043 C168.664557,21.0297872 170.568354,23.8893617 175.03038,23.8893617 C177.648101,23.8893617 179.492405,22.9957447 180.444304,21.2680851 L187.405063,21.2680851 L187.405063,21.3276596 Z M50.6886076,22.3404255 L55.6265823,17.3361702 L65.621519,27.2851064 L55.6265823,27.2851064 L50.6886076,22.3404255 Z M55.6265823,17.3361702 L50.6886076,12.3914894 L55.6265823,7.38723404 L65.621519,7.38723404 L55.6265823,17.3361702 Z M78.5911392,23.412766 C82.6367089,23.412766 84.956962,21.2085106 84.956962,17.3361702 C84.956962,13.4638298 82.6367089,11.2595745 78.5911392,11.2595745 C74.5455696,11.2595745 72.2253165,13.4638298 72.2253165,17.3361702 C72.2253165,21.2085106 74.5455696,23.412766 78.5911392,23.412766 Z M78.5911392,6.67234043 C86.4443038,6.67234043 91.6797468,9.82978723 91.6797468,17.3361702 C91.6797468,24.8425532 86.4443038,28 78.5911392,28 C70.7379747,28 65.5025316,24.8425532 65.5025316,17.3361702 C65.5025316,9.82978723 70.7379747,6.67234043 78.5911392,6.67234043 Z" id="Combined-Shape"></path>
                </g>
            </g>
        </g>
    </g>
</svg>