<?xml version="1.0" encoding="UTF-8"?>
<svg width="485px" height="401px" viewBox="0 0 485 401" version="1.1" xmlns="http://www.w3.org/2000/svg" xmlns:xlink="http://www.w3.org/1999/xlink">
    <!-- Generator: Sketch 52.1 (67048) - http://www.bohemiancoding.com/sketch -->
    <title>Group 6</title>
    <desc>Created with Sketch.</desc>
    <g id="Homepage" stroke="none" stroke-width="1" fill="none" fill-rule="evenodd">
        <g id="Landingpage" transform="translate(-735.000000, -241.000000)">
            <g id="Group-6" transform="translate(735.000000, 241.000000)">
                <polygon id="Rectangle" fill="#F2EBE0" transform="translate(70.419928, 82.180544) rotate(-12.921500) translate(-70.419928, -82.180544) " points="14.9094387 10.8846218 125.898595 10.909665 125.930793 153.476552 14.941637 153.451509"></polygon>
                <polygon id="Rectangle" fill="#F2EBE0" transform="translate(70.419928, 82.180544) rotate(-12.921500) translate(-70.419928, -82.180544) " points="14.9094387 10.8846218 125.898595 10.909665 125.930793 153.476552 14.941637 153.451509"></polygon>
                <path d="M95.0849316,18.1134 L81.8917741,21.13715 L82.497401,23.7731 L95.6905585,20.74935 L95.0849316,18.1134 Z M84.0540124,30.5509 L97.2471699,27.52715 L97.7662073,29.7865 L84.5730497,32.81025 L84.0540124,30.5509 Z M17.7224462,59.627 L30.9157038,56.603 L31.5210305,59.239 L18.3278229,62.2625 L17.7224462,59.627 Z M112.687153,58.4735 L22.2195516,79.2075 L22.6519993,81.0905 L113.119601,60.3565 L112.687153,58.4735 Z M124.10247,108.179 L33.6350689,128.913 L33.980977,130.4195 L124.448328,109.6855 L124.10247,108.179 Z M27.9273603,104.0605 L118.394562,83.3265 L118.74092,84.8325 L28.2733184,105.5665 L27.9273603,104.0605 Z M57.1206311,79.1365 L23.9489919,86.739 L24.5543686,89.375 L57.7257575,81.7725 L57.1206311,79.1365 Z M25.1598454,92.0105 L61.3470062,83.717 L61.9521326,86.353 L25.7652221,94.6465 L25.1598454,92.0105 Z M59.5421378,89.68 L26.3706989,97.2825 L26.889536,99.542 L60.0611751,91.939 L59.5421378,89.68 Z M29.2246032,109.709 L56.3648487,103.4885 L56.883886,105.748 L29.7434403,111.968 L29.2246032,109.709 Z M72.0971347,109.7925 L31.3866413,119.1225 L31.9054784,121.382 L72.6156715,112.0515 L72.0971347,109.7925 Z M30.2621773,114.2275 L70.9724705,104.897 L71.5780974,107.533 L30.867554,116.8635 L30.2621773,114.2275 Z M33.077742,66.017 L19.8844844,69.0405 L20.489861,71.6765 L33.6830686,68.653 L33.077742,66.017 Z M35.7227801,60.2575 L18.7601705,64.1455 L19.3655472,66.781 L36.3281568,62.8935 L35.7227801,60.2575 Z M82.9298487,25.65595 L99.8924083,21.7683 L100.497535,24.4042 L83.5349751,28.29185 L82.9298487,25.65595 Z M126.264709,117.593 L109.301649,121.481 L109.820686,123.74 L126.783246,119.8525 L126.264709,117.593 Z M110.339723,125.9995 L127.302283,122.1115 L127.90791,124.7475 L110.94485,128.635 L110.339723,125.9995 Z M114.416444,66.0045 L104.993189,68.1645 L105.598315,70.8005 L115.02207,68.6405 L114.416444,66.0045 Z M106.117352,73.06 L115.541108,70.9 L116.146234,73.536 L106.722479,75.696 L106.117352,73.06 Z M119.691905,88.9745 L110.268149,91.1345 L110.787187,93.394 L120.210942,91.234 L119.691905,88.9745 Z M111.306224,95.6535 L120.729979,93.4935 L121.335106,96.1295 L111.91135,98.2895 L111.306224,95.6535 Z M26.0683859,50.1825 C31.3771315,48.966 34.6932644,43.68065 33.4753536,38.3775 C32.2573927,33.07435 26.9665156,29.7616 21.6578201,30.9783 C16.3492247,32.19495 13.0330418,37.48035 14.2510026,42.7835 C15.4689134,48.08665 20.7597905,51.3995 26.0683859,50.1825 Z" id="Shape" fill="#000000" opacity="0.1"></path>
                <path d="M66.9940105,53.6867774 L173.608517,53.6748303 C174.713087,53.674711 175.608614,54.5700449 175.608733,55.6746144 C175.608733,55.6747606 175.608733,55.6749067 175.608733,55.6750529 L175.603758,92.4812634 C175.603635,93.5856616 174.708372,94.4809215 173.603974,94.4810407 L66.9894675,94.4934265 C65.884898,94.4935457 64.9893709,93.5982119 64.9892517,92.4936424 C64.9892516,92.4934962 64.9892516,92.49335 64.9892517,92.4932039 L64.9942264,55.6869934 C64.9943494,54.5825951 65.8896123,53.6873353 66.9940105,53.687216 Z" id="Rectangle" fill="#EB9161" transform="translate(120.298992, 74.084128) rotate(5.910180) translate(-120.298992, -74.084128) "></path>
                <path d="M73.566656,72.115 L78.2715264,72.6015 L77.7660031,77.4755 L80.1309513,77.72 L80.6359741,72.846 L85.4154218,73.3405 L85.6396539,71.177 L80.8602062,70.6825 L81.3682321,65.784 L79.0032839,65.539 L78.4957585,70.438 L73.7908881,69.9515 L73.566656,72.115 Z M99.4124114,80.468 L101.154215,63.6575 L98.8393181,63.4185 L93.1529316,65.1175 L93.6114062,67.251 L98.2527109,65.9215 L96.7736798,80.195 L99.4124114,80.468 Z M109.266112,79.451 C106.701958,79.186 105.963193,76.8475 106.393638,72.6945 C106.823583,68.542 108.026328,66.4045 110.590483,66.6695 C113.129611,66.932 113.868376,69.2705 113.437931,73.423 C113.007985,77.576 111.80524,79.7135 109.266112,79.451 Z M110.827728,64.3815 C106.446693,63.9285 104.226395,67.1425 103.68033,72.414 C103.133764,77.686 104.597779,81.2805 109.028866,81.739 C113.409902,82.192 115.605174,78.9755 116.15174,73.704 C116.697805,68.432 115.23379,64.8375 110.827728,64.3815 Z M126.817281,74.6055 C128.501524,74.3775 129.989565,73.124 130.201284,71.085 C130.479572,68.3995 128.592118,66.2185 125.206613,65.8685 C121.472748,65.4825 119.610821,67.4265 119.358059,69.863 L122.021817,70.1385 C122.155455,68.8455 123.177012,67.971 124.969368,68.1565 C126.687146,68.334 127.604596,69.434 127.449936,70.926 C127.272252,72.642 125.909841,73.406 123.943306,73.2025 L122.350156,73.038 L122.123422,75.226 L123.716571,75.391 C125.907339,75.6175 127.110584,76.873 126.927395,78.6385 C126.762724,80.23 125.484401,81.1535 123.642494,80.963 C121.775562,80.77 120.775526,79.7365 120.917173,78.369 L118.278441,78.096 C118.013167,80.6575 119.524732,82.824 123.407751,83.226 C126.892859,83.586 129.358912,81.881 129.650213,79.071 C129.887459,76.783 128.473996,75.129 126.817281,74.6055 Z M137.767617,84.711 C141.327302,85.079 143.894459,83.61 144.216793,80.502 C144.459044,78.1645 143.077113,76.6895 141.48046,76.072 C143.125163,75.739 144.496082,74.6495 144.704798,72.635 C145.001105,69.7755 143.076112,67.7165 139.565978,67.3535 C136.08087,66.993 133.749457,68.612 133.45315,71.4715 C133.244434,73.486 134.363092,74.833 135.929213,75.4975 C134.190413,75.7705 132.5352,76.931 132.292949,79.2685 C131.971116,82.377 134.207932,84.3425 137.767617,84.711 Z M139.328733,69.6415 C141.096563,69.824 142.151154,70.813 141.978476,72.479 C141.805797,74.145 140.448892,74.859 138.805691,74.6895 C137.162991,74.5195 135.981267,73.5425 136.153446,71.8765 C136.326124,70.2105 137.561403,69.4585 139.328733,69.6415 Z M137.976833,82.4455 C136.035323,82.2445 134.869116,81.1185 135.054308,79.328 C135.242503,77.513 136.734547,76.712 138.551428,76.9 C140.393835,77.0905 141.714703,78.182 141.526508,79.9975 C141.340816,81.788 139.968395,82.651 137.976833,82.4455 Z M152.644517,74.9895 L152.466833,76.705 L153.66157,76.829 L153.488891,78.495 L152.294154,78.3715 L152.118973,80.0625 L153.512916,80.2065 C153.708118,84.1475 155.572548,86.552 159.356465,86.9435 C161.024192,87.116 162.511732,86.8425 163.853621,86.2775 L163.421173,83.895 C162.093799,84.5625 160.77093,84.702 159.725347,84.594 C157.584631,84.3725 156.547057,82.732 156.300802,80.495 L160.632286,80.9425 L161.429611,79.316 L156.227226,78.778 C156.233232,78.477 156.266767,78.154 156.302804,77.8055 L156.374879,77.1095 L162.174883,77.709 L162.975211,76.0575 L156.727244,75.4115 C157.337375,73.1625 158.567649,71.7315 160.85802,71.968 C162.276488,72.115 163.405657,72.634 164.324608,73.2315 L165.403225,71.081 C164.147925,70.323 162.870103,69.7885 161.152324,69.611 C157.169702,69.199 154.952907,71.408 154.013935,75.131 L152.644517,74.9895 Z" id="Shape" fill="#FFFFFF" fill-rule="nonzero"></path>
                <path d="M168.630065,350.94 C169.821298,348.91 171.993547,346.88 175.497174,346.88 C179.771599,346.88 181.873775,349.61 181.873775,353.81 C181.873775,358.15 179.771599,360.95 175.497174,360.95 C170.802314,360.95 168.630065,356.68 168.630065,350.94 Z M181.313195,334.35 L191.824076,334.35 C191.824076,326.93 187.269361,320.91 176.197899,320.91 C162.743972,320.91 157.768822,332.18 157.768822,347.09 C157.768822,359.76 162.95419,369.77 175.497174,369.77 C187.129216,369.77 192.735019,362.35 192.735019,353.67 C192.735019,344.29 187.199288,338.48 178.510293,338.48 C173.955578,338.48 170.451951,340.16 168.630065,341.7 C168.630065,334.84 170.592096,329.73 176.197899,329.73 C179.421236,329.73 181.313195,331.48 181.313195,334.35 Z M219.528255,369 L219.528255,321.68 L210.488897,321.68 L194.862721,328.12 L197.385333,336.24 L208.947302,331.69 L208.947302,369 L219.528255,369 Z M245.178808,360.95 C239.362788,360.95 237.470829,355.77 237.470829,345.34 C237.470829,334.91 239.362788,329.73 245.178808,329.73 C250.994829,329.73 252.816715,334.91 252.816715,345.34 C252.816715,355.77 250.994829,360.95 245.178808,360.95 Z M245.178808,320.91 C232.005171,320.91 226.609585,330.64 226.609585,345.34 C226.609585,360.04 231.794953,369.77 245.178808,369.77 C258.352446,369.77 263.677959,360.04 263.677959,345.34 C263.677959,330.64 258.492591,320.91 245.178808,320.91 Z M280.998389,337.71 L280.998389,343.94 L284.221725,343.94 L284.221725,347.16 L280.998389,347.16 L280.998389,353.39 L284.922451,353.39 C286.954554,364.17 293.471301,369.77 303.982181,369.77 C308.677041,369.77 312.671176,368.72 316.034658,367.04 L313.582119,358.08 C310.218637,359.97 306.995301,360.53 304.542762,360.53 C300.548627,360.53 297.60558,357.8 296.134057,353.39 L306.925228,353.39 L308.957332,347.16 L295.153041,347.16 C295.082969,346.53 295.082969,345.9 295.082969,345.2 L295.082969,343.94 L309.868275,343.94 L311.970451,337.71 L295.643549,337.71 C296.624565,333.09 298.796813,330.22 303.701891,330.22 C307.415736,330.22 310.779218,331.27 313.301829,332.32 L316.455093,323.64 C312.390886,321.96 308.957332,320.98 303.982181,320.98 C292.139922,320.98 286.534119,327.42 284.852378,337.71 L280.998389,337.71 Z" id="Shape" fill="#180B32" fill-rule="nonzero"></path>
                <path d="M199.684212,400.505 L204.233922,400.505 C209.481855,400.505 211.644093,398.1875 211.644093,392.9 C211.644093,387.5675 209.459332,385.295 204.233922,385.295 L199.684212,385.295 L199.684212,400.505 Z M202.139254,398.48 L202.139254,387.32 L204.098782,387.32 C207.927746,387.32 209.121482,388.8725 209.121482,392.9 C209.121482,397.0175 207.927746,398.48 204.098782,398.48 L202.139254,398.48 Z M220.210962,398.48 L220.210962,393.8 L226.38235,393.8 L226.38235,391.775 L220.210962,391.775 L220.210962,387.32 L227.26076,387.32 L227.26076,385.295 L217.75592,385.295 L217.75592,400.505 L227.32833,400.505 L227.32833,398.48 L220.210962,398.48 Z M233.342055,400.505 L235.797096,400.505 L235.797096,385.295 L233.342055,385.295 L233.342055,400.505 Z M252.054426,396.5 L245.139768,385.295 L242.527063,385.295 L242.527063,400.505 L245.004628,400.505 L244.982105,389.1875 L251.941809,400.505 L254.486944,400.505 L254.486944,385.295 L252.054426,385.295 L252.054426,396.5 Z M270.697225,387.32 C269.931432,386.15 268.42237,385.07 265.877235,385.07 C262.318551,385.07 260.786966,387.2525 260.786966,389.5925 C260.786966,391.5275 261.868085,392.9 264.34565,393.665 L266.327702,394.25 C267.589007,394.6325 268.332277,395.2175 268.332277,396.365 C268.332277,397.715 267.363774,398.6375 265.539385,398.6375 C263.287054,398.6375 262.476215,397.67 261.935655,396.5675 L260.20136,397.9175 C260.809489,399.1325 262.138365,400.7525 265.539385,400.7525 C268.737696,400.7525 270.854888,398.9975 270.854888,396.185 C270.854888,394.16 269.683676,392.8775 267.183588,392.1125 L265.201536,391.5275 C263.917707,391.1225 263.332101,390.5375 263.332101,389.4575 C263.332101,388.1525 264.187987,387.185 265.877235,387.185 C267.341251,387.185 268.3548,387.7475 268.96293,388.67 L270.697225,387.32 Z" id="Shape" fill="#4D4B51" fill-rule="nonzero"></path>
                <ellipse id="Oval" fill="#FFDAA0" cx="369.724738" cy="106.505" rx="37.5388601" ry="37.5"></ellipse>
                <path d="M354.709194,115.505 L354.709194,98.605 L352.381784,98.605 L346.901111,100.88 L347.57681,102.955 L352.056448,101.155 L352.056448,115.505 L354.709194,115.505 Z M367.083504,105.18 C366.532934,106.205 365.381742,107.205 363.855162,107.205 C361.803037,107.205 360.726923,105.955 360.726923,103.98 C360.726923,101.955 361.778011,100.605 363.855162,100.605 C366.107493,100.605 367.083504,102.73 367.083504,105.18 Z M358.349462,111.205 C358.349462,113.73 360.026198,115.78 363.629928,115.78 C368.009462,115.78 369.861379,111.98 369.861379,106.48 C369.861379,101.805 368.08454,98.33 363.855162,98.33 C359.901068,98.33 357.999099,100.955 357.999099,104.005 C357.999099,107.255 359.95112,109.405 363.204488,109.405 C365.056405,109.405 366.532934,108.38 367.133555,107.68 C367.133555,111.105 366.082467,113.48 363.629928,113.48 C362.02827,113.48 361.027234,112.605 361.027234,111.205 L358.349462,111.205 Z" id="Shape" fill-opacity="0.7" fill="#000000" fill-rule="nonzero"></path>
                <polygon id="Path" fill="#4D4130" points="387.831482 99.005 389.244945 100.417 374.641327 115.005 373.228365 113.593"></polygon>
                <path d="M376.731992,104.505 C377.837636,104.505 378.734064,103.6095 378.734064,102.505 C378.734064,101.4005 377.837636,100.505 376.731992,100.505 C375.625847,100.505 374.729919,101.4005 374.729919,102.505 C374.729919,103.6095 375.625847,104.505 376.731992,104.505 Z M376.731992,106.505 C374.520202,106.505 372.727847,104.714 372.727847,102.505 C372.727847,100.296 374.520202,98.505 376.731992,98.505 C378.943281,98.505 380.736137,100.296 380.736137,102.505 C380.736137,104.714 378.943281,106.505 376.731992,106.505 Z" id="Shape" fill="#4D4130" fill-rule="nonzero"></path>
                <path d="M385.741318,113.505 C386.846963,113.505 387.743391,112.6095 387.743391,111.505 C387.743391,110.4005 386.846963,109.505 385.741318,109.505 C384.635173,109.505 383.739246,110.4005 383.739246,111.505 C383.739246,112.6095 384.635173,113.505 385.741318,113.505 Z M385.741318,115.505 C383.529528,115.505 381.737173,113.714 381.737173,111.505 C381.737173,109.296 383.529528,107.505 385.741318,107.505 C387.952607,107.505 389.745463,109.296 389.745463,111.505 C389.745463,113.714 387.952607,115.505 385.741318,115.505 Z" id="Shape" fill="#4D4130" fill-rule="nonzero"></path>
                <ellipse id="Oval" fill="#BCDEDE" cx="327.681215" cy="62.005" rx="37.5388601" ry="37.5"></ellipse>
                <path d="M311.342301,53.83 C307.838674,53.83 306.08686,56.005 306.08686,59.13 L308.739606,59.13 C308.739606,57.33 309.590487,56.13 311.342301,56.13 C313.044062,56.13 313.919969,57.28 313.919969,58.88 C313.919969,60.48 313.019036,61.83 311.492456,63.455 L306.237016,69.105 L306.237016,71.005 L316.923078,71.005 L316.923078,68.805 L309.790694,68.805 L313.294321,65.055 C315.146238,63.105 316.672819,61.255 316.672819,58.88 C316.672819,55.955 314.620694,53.83 311.342301,53.83 Z M331.702377,65.305 L329.500097,65.305 L329.500097,54.105 L326.722222,54.105 L318.914139,65.53 L318.914139,67.505 L326.847351,67.505 L326.847351,71.005 L329.500097,71.005 L329.500097,67.505 L331.702377,67.505 L331.702377,65.305 Z M321.742066,65.305 L326.847351,57.705 L326.847351,65.305 L321.742066,65.305 Z" id="Shape" fill="#114044" fill-rule="nonzero"></path>
                <polygon id="Path" fill="#114044" points="349.792104 55.005 351.205567 56.417 336.601949 71.005 335.188987 69.593"></polygon>
                <path d="M338.692613,60.505 C339.798258,60.505 340.694686,59.6095 340.694686,58.505 C340.694686,57.4005 339.798258,56.505 338.692613,56.505 C337.586468,56.505 336.690541,57.4005 336.690541,58.505 C336.690541,59.6095 337.586468,60.505 338.692613,60.505 Z M338.692613,62.505 C336.480824,62.505 334.688468,60.714 334.688468,58.505 C334.688468,56.296 336.480824,54.505 338.692613,54.505 C340.903903,54.505 342.696759,56.296 342.696759,58.505 C342.696759,60.714 340.903903,62.505 338.692613,62.505 Z" id="Shape" fill="#114044" fill-rule="nonzero"></path>
                <path d="M347.70194,69.505 C348.807584,69.505 349.704012,68.6095 349.704012,67.505 C349.704012,66.4005 348.807584,65.505 347.70194,65.505 C346.595795,65.505 345.699867,66.4005 345.699867,67.505 C345.699867,68.6095 346.595795,69.505 347.70194,69.505 Z M347.70194,71.505 C345.49015,71.505 343.697795,69.714 343.697795,67.505 C343.697795,65.296 345.49015,63.505 347.70194,63.505 C349.913229,63.505 351.706085,65.296 351.706085,67.505 C351.706085,69.714 349.913229,71.505 347.70194,71.505 Z" id="Shape" fill="#114044" fill-rule="nonzero"></path>
                <g id="Group" opacity="0.8" transform="translate(196.703627, 68.000000)" stroke="#CCCCCC" stroke-width="3">
                    <path d="M0.342354404,15.505 L76.921629,15.505" id="Path"></path>
                    <path d="M37.8812145,216.505 L37.8812145,197.9065 C37.8812145,156.485 71.4945109,122.9065 112.958935,122.9065 L232.381561,122.9065 C262.070294,122.9065 286.138209,98.8635 286.138209,69.2055 C286.138209,39.5475 262.070294,15.505 232.381561,15.505 L221.070852,15.505" id="Path"></path>
                    <polyline id="Path" points="60.4045306 0.005 76.921629 15.505 60.4045306 31.005"></polyline>
                    <polyline id="Path" points="53.3972767 200.005 37.8812145 216.505 22.3651523 200.005"></polyline>
                </g>
            </g>
        </g>
    </g>
</svg>