<svg version="1.1" xmlns="http://www.w3.org/2000/svg"
     xmlns:xlink="http://www.w3.org/1999/xlink" width="100%" height="100%"  viewBox="0 0 17 17" style="enable-background:new 0 0 90 90;">
<g>
    <path d="M9.08025084,17 L0.938269497,17 C0.419925734,17 0,16.5798137 0,16.0616718 L0,0.938262215 C0,0.419988435 0.419991697,0 0.938269497,0 L16.0617965,0 C16.5799423,0 17,0.419988435 17,0.938262215 L17,16.0616718 C17,16.5798796 16.5798764,17 16.0617965,17 L11.729754,17 L11.729754,10.4166631 L13.9394763,10.4166631 L14.2703508,7.8510199 L11.729754,7.8510199 L11.729754,6.21301883 C11.729754,5.47020592 11.9360229,4.96400344 13.0012067,4.96400344 L14.3597978,4.96340975 L14.3597978,2.6686779 C14.1248346,2.63741129 13.3183608,2.56755614 12.3800913,2.56755614 C10.4212954,2.56755614 9.08025084,3.76320723 9.08025084,5.95892815 L9.08025084,7.8510199 L6.86485564,7.8510199 L6.86485564,10.4166631 L9.08025084,10.4166631 L9.08025084,17 L9.08025084,17 L9.08025084,17 Z"></path>
</g>
</svg>