<svg width="21" height="24" viewBox="0 0 21 24" xmlns="http://www.w3.org/2000/svg"><title>Group</title><g fill-rule="nonzero" fill="none"><path d="M13.143 20.5H4A3.497 3.497 0 0 1 .5 17V4C.5 2.066 2.063.5 4 .5h13c1.934 0 3.5 1.563 3.5 3.5V23.95L13.143 20.5z" fill="#5A2FB1"/><path d="M4.627 14.924a.75.75 0 1 1 .783-1.28c.077.048.232.137.452.254.372.197.784.394 1.224.578 1.057.441 2.099.733 3.05.807a5.977 5.977 0 0 0 .708.012c.971-.046 2.04-.344 3.12-.815.422-.183.814-.38 1.167-.575a8.38 8.38 0 0 0 .427-.25.75.75 0 0 1 .813 1.26 9.735 9.735 0 0 1-.512.301c-.393.218-.828.436-1.296.64-1.233.537-2.469.881-3.648.937a6.822 6.822 0 0 1-.895-.015c-1.132-.088-2.32-.42-3.512-.918-.485-.203-.938-.42-1.348-.637-.249-.132-.43-.236-.533-.299z" fill="#FFF"/></g></svg>