<svg version="1.1" xmlns="http://www.w3.org/2000/svg"
xmlns:xlink="http://www.w3.org/1999/xlink"  viewBox="0 0 1000 171" style="enable-background:new 0 0 90 90;">
  <g>
    <path id="Logo" d="M228.786177,0.00141453954 L263.263263,0.00141453954 L263.263263,46.6918284 C263.263263,79.4384187 255.378226,109.218012 238.302846,131.857718 C219.528441,156.75715 193.979218,169.746159 163.609588,169.746159 L100.1001,169.746159 L100.1001,115.282851 C100.1001,46.4902565 168.348414,0.00141453954 228.786177,0.00141453954 Z M241.981112,46.6918284 L241.981112,21.2195076 L228.786177,21.2195076 C203.4214,21.2195076 175.69785,31.563328 155.543652,48.8383921 C134.559451,66.8277987 121.382252,90.7052262 121.382252,115.282851 L121.382252,148.528066 L163.609588,148.528066 C215.52385,148.528066 241.981112,96.8620095 241.981112,46.6918284 Z M21.4427594,52.3294027 C21.4427594,91.7130322 42.8855189,125.85209 75.049658,142.255474 L75.049658,168.168168 C32.1641391,150.510035 0,105.254459 0,52.3294027 L0,5.68434189e-14 L52.1702337,5.68434189e-14 C75.7822856,5.68434189e-14 97.7575402,7.69062819 116.116116,20.6258278 C110.598179,26.3074468 105.569852,32.5353753 101.084742,38.9888767 C86.8860612,29.3385834 70.1249709,24.6720428 52.1702337,24.6720428 L21.4427594,24.6720428 L21.4427594,52.3294027 Z"></path>
    <path id="Wordmark" d="M371.544382,103.460167 L371.544382,167.167167 L350.35035,167.167167 L350.35035,0 L371.544382,0 L371.544382,72.4702514 L438.096253,0 L464.464464,0 L397.605741,76.3209856 L464.217571,167.167167 L438.836933,167.167167 L382.573462,91.4053874 L371.544382,103.460167 Z M569.56957,111.365109 C569.56957,145.565645 551.048819,170.17017 514.901325,170.17017 C480.717833,170.17017 461.461461,145.319142 461.461461,111.611612 C461.461461,77.9040812 480.225073,53.0530531 515.636946,53.0530531 C550.805958,53.0530531 569.56957,77.9040812 569.56957,111.365109 Z M549.405111,111.611612 C549.405111,86.5140804 537.279686,71.0160819 515.144185,71.0160819 C493.997726,71.0160819 481.37954,86.5140804 481.37954,111.365109 C481.37954,136.709143 493.997726,152.210663 515.144185,152.210663 C537.279686,152.210663 549.405111,136.46264 549.405111,111.611612 Z M587.587588,55.524427 L606.90677,55.524427 L606.90677,69.1116806 C613.592271,59.7247021 627.46309,53.0530531 644.056318,53.0530531 C672.042547,53.0530531 683.683684,68.1217167 683.683684,96.282652 L683.683684,168.168168 L663.871773,168.168168 L663.871773,98.0150887 C663.871773,80.4750511 657.679,71.3355636 638.111681,71.3355636 C624.737135,71.3355636 613.592271,80.5528339 607.399498,87.9634203 L607.399498,168.168168 L587.587588,168.168168 L587.587588,55.524427 Z M737.221622,135.071623 C737.221622,145.454239 741.659011,151.878372 752.502045,151.878372 C757.429734,151.878372 763.098165,150.396151 767.782468,148.418679 L769.754249,165.473054 C764.085819,168.189868 755.708394,170.170878 746.833615,170.170878 C726.378588,170.170878 717.754249,157.071448 717.754249,137.296722 L717.754249,72.0472006 L696.311569,72.0472006 L696.311569,55.0317385 L717.754249,54.9928258 L717.754249,26.8164942 L737.221622,23.1091752 L737.221622,54.9928258 L767.288641,54.9928258 L767.288641,72.0472006 L737.221622,72.0472006 L737.221622,135.071623 Z M790.890059,167.167167 L790.890059,54.5702676 L810.194092,54.5702676 L810.194092,167.167167 L790.890059,167.167167 Z M786.786787,13.8254573 C786.786787,4.19852846 792.579033,0 800.298573,0 C807.299696,0 813.813814,4.19852846 813.813814,13.8254573 C813.813814,23.4559204 807.299696,27.1596727 800.298573,27.1596727 C792.579033,27.1596727 786.786787,23.4559204 786.786787,13.8254573 Z M903.852217,80.8550748 C897.682801,74.2135785 888.306844,68.7975545 875.229945,68.7975545 C859.931773,68.7975545 853.518689,76.671566 853.518689,85.7745713 C853.518689,92.666092 857.219631,98.0785946 867.333658,100.540104 L886.579973,104.966594 C907.553159,109.889612 917.917918,120.221611 917.917918,136.46264 C917.917918,154.915153 903.605016,170.17017 872.761472,170.17017 C849.076145,170.17017 836.493646,160.081153 829.82983,151.471154 L841.92146,139.413633 C848.090875,146.794639 855.739961,154.66865 873.503073,154.66865 C887.568775,154.66865 897.682801,149.256148 897.682801,137.938137 C897.682801,129.571119 891.513386,125.141107 880.904959,122.436617 L861.167775,117.763623 C842.659529,113.333611 833.777973,102.262103 833.777973,87.2535895 C833.777973,71.2590635 845.375202,53.0530531 875.971546,53.0530531 C896.203131,53.0530531 909.03283,61.1735676 915.449446,68.7975545 L903.852217,80.8550748 Z M967.187686,135.050522 C967.187686,145.439171 971.663225,151.867036 982.599477,151.867036 C987.56953,151.867036 993.286692,150.383955 998.011267,148.405333 L1000,165.469617 C994.282838,168.188009 985.833391,170.17017 976.882314,170.17017 C956.251434,170.17017 947.552951,157.06313 947.552951,137.276914 L947.552951,71.989482 L925.925926,71.989482 L925.925926,54.9216589 L947.552951,54.9251985 L947.552951,26.732496 L967.187686,23.023023 L967.187686,54.9251985 L997.513194,54.9251985 L997.513194,71.989482 L967.187686,71.989482 L967.187686,135.050522 Z"></path>
  </g>
</svg>
