<svg version="1.1" xmlns="http://www.w3.org/2000/svg"
     xmlns:xlink="http://www.w3.org/1999/xlink" width="100%" height="100%"  viewBox="0 0 17 17" style="enable-background:new 0 0 90 90;">
    <g>
        <path d="M18,1.77573131 C17.3386159,2.07692308 16.6265186,2.28060671 15.8795561,2.3716143 C16.6423665,1.9035753 17.2276808,1.16143012 17.5034336,0.277356446 C16.7892236,0.710725894 16.0000001,1.02600217 15.156894,1.19501625 C14.4849446,0.459371614 13.524564,0 12.4617011,0 C10.4236661,0 8.770206,1.69555796 8.770206,3.78656554 C8.770206,4.0834236 8.80190175,4.37161429 8.86529325,4.64897074 C5.79609075,4.4907909 3.0755415,2.98483207 1.25303737,0.69122427 C0.935023875,1.2524377 0.7533015,1.9035753 0.7533015,2.59696643 C0.7533015,3.91007584 1.40517713,5.0693391 2.39619638,5.74864571 C1.79186475,5.73022751 1.22134163,5.55796316 0.7226625,5.27627303 L0.7226625,5.32286025 C0.7226625,7.15817985 1.995774,8.68905743 3.6862125,9.03575299 C3.37665075,9.12459371 3.05018475,9.16901407 2.71315388,9.16901407 C2.47543575,9.16901407 2.24300063,9.14626219 2.01796088,9.10184183 C2.48811412,10.6056338 3.85103025,11.7009751 5.467512,11.7302275 C4.203909,12.7464789 2.61067087,13.3521127 0.881140875,13.3521127 C0.583201125,13.3521127 0.288430875,13.3347779 0,13.3001083 C1.63444275,14.3726977 3.57633375,15 5.66085562,15 C12.4543054,15 16.1679874,9.23076922 16.1679874,4.22643555 C16.1679874,4.06175516 16.1648179,3.89707474 16.1584785,3.73564462 C16.8800846,3.20151679 17.5066031,2.53521127 18,1.77573131"></path>
    </g>
</svg>